<?xml version="1.0" encoding="utf-8"?>
<!-- Generator: Adobe Illustrator 21.1.0, SVG Export Plug-In . SVG Version: 6.00 Build 0)  -->
<svg version="1.1" id="Layer_1" xmlns="http://www.w3.org/2000/svg" xmlns:xlink="http://www.w3.org/1999/xlink" x="0px" y="0px"
	 viewBox="0 0 432 108" style="enable-background:new 0 0 432 108;" xml:space="preserve">
<style type="text/css">
	.st0{clip-path:url(#SVGID_2_);fill:#0680C4;}
	.st1{clip-path:url(#SVGID_4_);fill:#0680C4;}
	.st2{clip-path:url(#SVGID_6_);fill:#0680C4;}
	.st3{clip-path:url(#SVGID_8_);fill:#0680C4;}
	.st4{clip-path:url(#SVGID_10_);fill:#0680C4;}
	.st5{clip-path:url(#SVGID_12_);fill:#0680C4;}
	.st6{clip-path:url(#SVGID_14_);fill:#0680C4;}
	.st7{clip-path:url(#SVGID_16_);fill:#0680C4;}
	.st8{clip-path:url(#SVGID_18_);fill:#0680C4;}
	.st9{clip-path:url(#SVGID_20_);fill:#0680C4;}
	.st10{clip-path:url(#SVGID_22_);fill:#0680C4;}
	.st11{clip-path:url(#SVGID_24_);fill:#0680C4;}
	.st12{fill:#0680C4;}
	.st13{font-family:'DINCondensed-Bold';}
	.st14{font-size:48.9677px;}
	.st15{font-family:'AirwaysPERSONALUSEONLY';}
	.st16{font-size:45.9363px;}
</style>
<g>
	<g>
		<defs>
			<rect id="SVGID_1_" x="17.3" y="8.3" width="228.8" height="116"/>
		</defs>
		<clipPath id="SVGID_2_">
			<use xlink:href="#SVGID_1_"  style="overflow:visible;"/>
		</clipPath>
		<path class="st0" d="M212.8,58.5c-8.5,3.3-18,6.4-21.8,7.8C194.8,65,204.3,61.8,212.8,58.5c-0.1-1-0.4-2-0.7-2.9
			c0.2,0.5,0.3,1,0.4,1.6C212.6,57.6,212.7,58.1,212.8,58.5"/>
	</g>
	<g>
		<defs>
			<rect id="SVGID_3_" x="17.3" y="8.3" width="228.8" height="116"/>
		</defs>
		<clipPath id="SVGID_4_">
			<use xlink:href="#SVGID_3_"  style="overflow:visible;"/>
		</clipPath>
		<path class="st1" d="M212.3,68.2c-0.2,0.6-0.3,1.2-0.5,1.8c0.2,0,0.3-0.1,0.5-0.2c0.4-1.2,0.6-2.7,0.8-4.2c-2.9,1.1-6.2,2.5-9,3.5
			c2.6-0.7,5.4-1.7,8.6-2.8C212.6,67,212.4,67.7,212.3,68.2"/>
	</g>
	<g>
		<defs>
			<rect id="SVGID_5_" x="17.3" y="8.3" width="228.8" height="116"/>
		</defs>
		<clipPath id="SVGID_6_">
			<use xlink:href="#SVGID_5_"  style="overflow:visible;"/>
		</clipPath>
		<path class="st2" d="M213,62.5c0,0.3,0,0.6,0,0.8c0,0.2,0,0.4,0,0.5c0,0,0.1,0,0.2-0.1c0-0.2,0-0.5,0-0.8c0-0.9,0-1.9-0.1-2.7
			c-4.2,1.6-8.6,3.2-12.5,4.6c3.3-0.9,7.5-2.2,12.4-4.1C213,61.3,213.1,61.8,213,62.5"/>
	</g>
	<g>
		<defs>
			<rect id="SVGID_7_" x="17.3" y="8.3" width="228.8" height="116"/>
		</defs>
		<clipPath id="SVGID_8_">
			<use xlink:href="#SVGID_7_"  style="overflow:visible;"/>
		</clipPath>
		<path class="st3" d="M197.1,76.7h0.1c1.7-0.2,3.7-0.6,5.1-1.2C200.2,76.1,198.6,76.4,197.1,76.7"/>
	</g>
	<g>
		<defs>
			<rect id="SVGID_9_" x="17.3" y="8.3" width="228.8" height="116"/>
		</defs>
		<clipPath id="SVGID_10_">
			<use xlink:href="#SVGID_9_"  style="overflow:visible;"/>
		</clipPath>
		<path class="st4" d="M211.3,71.8c0,0,0,0,0,0.1V71.8"/>
	</g>
	<g>
		<defs>
			<rect id="SVGID_11_" x="17.3" y="8.3" width="228.8" height="116"/>
		</defs>
		<clipPath id="SVGID_12_">
			<use xlink:href="#SVGID_11_"  style="overflow:visible;"/>
		</clipPath>
		<path class="st5" d="M40.7,43.9c-1.4,0.9-2.8,1.8-4.5,2.1c-0.7,0.1-1.5,0-2.1-0.3c0,0.1,0,0.1,0.1,0.2c0.2,1.2,0.2,2.4,0,3.5
			c0.2,0,0.2,0,0.2,0c0,20.5,0,20.5,0,20.5c4.7-1.1,11.4-2.3,18.1-3.2V49.4L40.7,43.9z"/>
	</g>
	<g>
		<defs>
			<rect id="SVGID_13_" x="17.3" y="8.3" width="228.8" height="116"/>
		</defs>
		<clipPath id="SVGID_14_">
			<use xlink:href="#SVGID_13_"  style="overflow:visible;"/>
		</clipPath>
		<path class="st6" d="M144.9,34c-16.4,0-27.1,10.2-28,26.3C115.7,43.4,106.2,34,90.1,34c-11.7,0-20.4,5.1-24.8,13.8
			c0-12.3,0-12.3,0-12.3H53.9c-0.6,0.9-1.4,1.6-2.3,2.3c-0.9,0.6-1.8,0.6-2.5,0.1c-0.3,0.7-0.6,1.5-1,2.1c-0.3,0.5-0.8,0.9-1.4,1.1
			c-0.2,0.3-0.4,0.6-0.6,0.9c-0.1,0.1-0.2,0.2-0.3,0.3l6.8,7.1c12.1,0,12.1,0,12.1,0c-1.6,3.7-2.5,8.1-2.5,13c0,1,0,2,0.1,2.9
			c5.6-0.7,10.5-1.2,13.3-1.5c31.5-2.9,49.2-2.3,59.2-1.5c7.3,0.6,27.1,4.4,28.7,3.9c1.6-0.3,5-1.8,8.7-2.4
			C171.9,44.8,162.2,34,144.9,34z M79.5,57.7c0.8-7.7,5-12,10.7-12c5.7,0,10,4.3,10.7,12C79.5,57.7,79.5,57.7,79.5,57.7z
			 M134.4,57.7c0.8-7.7,5-12,10.6-12c5.8,0,10.1,4.3,10.8,12C134.4,57.7,134.4,57.7,134.4,57.7z"/>
	</g>
	<g>
		<defs>
			<rect id="SVGID_15_" x="17.3" y="8.3" width="228.8" height="116"/>
		</defs>
		<clipPath id="SVGID_16_">
			<use xlink:href="#SVGID_15_"  style="overflow:visible;"/>
		</clipPath>
		<path class="st7" d="M134.6,69.1c4.3-0.1,7.5,0.1,10.7,0.5c9.4,1.5,14.4,4.6,18.5,7.6c-5,2-9.8,3.1-14.1,3.1
			C140.8,80.3,135.4,76.2,134.6,69.1 M213.3,10c0,33.3,0,33.3,0,33.3c-4.3-6.1-10.2-9.2-17.7-9.2c-14.2,0-23.6,11-23.6,28.6
			c0,0.4,0,0.9,0,1.4c0.2,0,0.5-0.1,0.8-0.1c6.9-1.1,12.7-1.7,18-2.5C191.4,53,196,48,201.5,48c4.9,0,8.7,2.7,10.5,7.5
			c0,0.1,0,0.1,0,0.1c0.3,0.9,0.6,1.9,0.7,2.9c-8.5,3.3-18,6.4-21.8,7.8c-1.1,0.3-1.8,0.5-1.8,0.5s3.5,0.1,11.5-2.1
			c3.8-1.4,8.3-3,12.5-4.6c0.1,0.8,0.1,1.8,0.1,2.7c0,0.3,0,0.6,0,0.8c-0.1,0.1-0.2,0.1-0.2,0.1c-10.2,4.2-21.6,8.5-21.6,8.5
			s5-0.9,12.7-3.2c2.8-1,6.1-2.4,9-3.5c-0.2,1.5-0.4,2.9-0.8,4.2c-0.2,0.1-0.3,0.2-0.5,0.2c0,0.1,0,0.1,0,0.1
			c-7.1,2.7-18,7.2-18,7.2s2.4-0.3,3.4-0.5c1-0.2,3.1-0.6,5.2-1.2c3.3-1.4,9-3.6,9-3.6v0.1c-0.1,0.2-0.4,1.2-2.3,3.2
			c-7.1,7-18,8.7-26.7,9.5c-7.4,0.5-11.5-3.5-16-7.1c-4.4-3.5-9.6-7.9-21.1-9.6c-8.3-1.2-16.3-0.6-40.7,1.8
			c-40.7,3.9-69,12.2-75.7,13.4c-4.5,0.9-9.7,0.5-10.5-2.6c-0.1,0.5-0.1,1,0,1.6c0.7,3.3,6,3.7,10.5,2.8c1.1-0.2,3-0.6,5.3-1.2
			c0,7.5,0,7.5,0,7.5c18.1,0,18.1,0,18.1,0c0-11.6,0-11.6,0-11.6c3.8-0.7,8-1.6,12.6-2.4C69.5,87,79.1,92.6,93,92.6
			c7,0,13.4-1,19.4-3.3c0-13.6,0-13.6,0-13.6c-6.2,3-12.4,4.7-17.7,4.7c-6.4,0-11-2.2-13.4-6c7.2-1,14.9-2,23.2-2.8
			c5-0.5,9.2-0.9,13.1-1.2c2.8,14,13.6,22.3,30.3,22.3c7,0,13.4-1,19.3-3.3c0-9.2,0-9.2,0-9.2c3.8,3,7.6,5.7,13.5,6.2
			c3.9,3.6,9.1,5.7,15,5.7c8.4,0,15.2-4.3,19.3-12.1c0,11.2,0,11.2,0,11.2c16.4,0,16.4,0,16.4,0c0-81.3,0-81.3,0-81.3h-18.2"/>
	</g>
	<g>
		<defs>
			<rect id="SVGID_17_" x="17.3" y="8.3" width="228.8" height="116"/>
		</defs>
		<clipPath id="SVGID_18_">
			<use xlink:href="#SVGID_17_"  style="overflow:visible;"/>
		</clipPath>
		<path class="st8" d="M228.4,53.3c5.8-3,10.7-5.7,10.7-5.7c-0.3-0.7-0.3-0.7-0.3-0.7s-2.7,1.1-7,2.9c-1,0.6-2.2,1.1-3.4,1.8"/>
	</g>
	<g>
		<defs>
			<rect id="SVGID_19_" x="17.3" y="8.3" width="228.8" height="116"/>
		</defs>
		<clipPath id="SVGID_20_">
			<use xlink:href="#SVGID_19_"  style="overflow:visible;"/>
		</clipPath>
		<path class="st9" d="M228.4,58.2c7.3-3.7,13.2-7.3,13.2-7.3c-0.4-0.7-0.4-0.7-0.4-0.7s-2.5,1.1-6.3,2.8c-1.9,1-4.1,2.3-6.3,3.4"/>
	</g>
	<g>
		<defs>
			<rect id="SVGID_21_" x="17.3" y="8.3" width="228.8" height="116"/>
		</defs>
		<clipPath id="SVGID_22_">
			<use xlink:href="#SVGID_21_"  style="overflow:visible;"/>
		</clipPath>
		<path class="st10" d="M228.4,63.3c8.4-4.4,15.4-8.5,15.4-8.5c-0.4-0.7-0.4-0.7-0.4-0.7s-3.4,1.7-8,3.7c-2.1,1.2-4.5,2.5-7,3.8"/>
	</g>
	<g>
		<defs>
			<rect id="SVGID_23_" x="17.3" y="8.3" width="228.8" height="116"/>
		</defs>
		<clipPath id="SVGID_24_">
			<use xlink:href="#SVGID_23_"  style="overflow:visible;"/>
		</clipPath>
		<path class="st11" d="M228.3,69c9.2-5.3,17.7-10.8,17.7-10.8c-0.4-0.7-0.4-0.7-0.4-0.7s-1.8,1-6,3.1c-3.1,1.9-7,4.3-11.1,6.7"/>
	</g>
</g>
<rect x="34.3" y="11.3" class="st12" width="18.1" height="46.5"/>
<rect x="46.7" y="35.1" class="st12" width="18.3" height="14.6"/>
<rect x="47.8" y="11.3" class="st12" width="31.9" height="13.9"/>
<text transform="matrix(1 0 0 1 288.3008 90.9814)" class="st12 st13 st14">Forward</text>
<text transform="matrix(1.4096 0 0 1 239.5361 89.8096)" class="st12 st15 st16">it</text>
</svg>
